<svg width="200" height="200" viewBox="0 0 200 200" fill="none" xmlns="http://www.w3.org/2000/svg">
<g clip-path="url(#clip0_2071_58)">
<path d="M53.2344 119.5H36.5938V162H14.6406V48.25H52.7656C59.0677 48.25 64.7708 49.0052 69.875 50.5156C74.9792 51.974 79.3542 54.1354 83 57C86.5938 59.8646 89.3542 63.4323 91.2812 67.7031C93.2604 71.974 94.25 76.9219 94.25 82.5469C94.25 86.6094 93.7552 90.2812 92.7656 93.5625C91.8281 96.7917 90.474 99.6823 88.7031 102.234C86.8802 104.839 84.6927 107.104 82.1406 109.031C79.6406 110.958 76.8281 112.625 73.7031 114.031L98.1562 160.984V162H74.6406L53.2344 119.5ZM36.5938 101.688H52.8438C56.2292 101.688 59.1979 101.219 61.75 100.281C64.3542 99.2917 66.4635 97.8854 68.0781 96.0625C69.4323 94.6042 70.4479 92.8594 71.125 90.8281C71.8542 88.7969 72.2188 86.5312 72.2188 84.0312C72.2188 81.0104 71.75 78.3542 70.8125 76.0625C69.9271 73.7188 68.5729 71.7917 66.75 70.2812C65.1354 68.9271 63.1562 67.8854 60.8125 67.1562C58.4688 66.4271 55.7865 66.0625 52.7656 66.0625H36.5938V101.688ZM190.109 113.484C190.109 118.38 189.667 123.042 188.781 127.469C187.896 131.844 186.62 135.906 184.953 139.656C183.182 143.406 180.995 146.844 178.391 149.969C175.786 153.094 172.818 155.698 169.484 157.781C166.464 159.604 163.13 161.01 159.484 162C155.891 163.042 152.01 163.562 147.844 163.562C143.417 163.562 139.328 162.99 135.578 161.844C131.828 160.698 128.417 159.083 125.344 157C122.323 154.812 119.615 152.182 117.219 149.109C114.823 145.984 112.818 142.469 111.203 138.562C109.745 134.969 108.625 131.062 107.844 126.844C107.115 122.625 106.75 118.172 106.75 113.484V96.9219C106.75 91.9219 107.167 87.1823 108 82.7031C108.885 78.224 110.161 74.0833 111.828 70.2812C113.443 66.6875 115.396 63.4323 117.688 60.5156C120.031 57.599 122.714 55.099 125.734 53.0156C128.703 50.9844 132.036 49.4219 135.734 48.3281C139.432 47.2344 143.443 46.6875 147.766 46.6875C152.141 46.6875 156.229 47.2604 160.031 48.4062C163.885 49.5 167.349 51.0885 170.422 53.1719C173.495 55.151 176.177 57.5469 178.469 60.3594C180.812 63.1719 182.818 66.2708 184.484 69.6562C186.307 73.5104 187.688 77.7292 188.625 82.3125C189.615 86.8958 190.109 91.7656 190.109 96.9219V113.484ZM167.844 96.7656C167.844 93.849 167.688 91.0885 167.375 88.4844C167.115 85.8281 166.672 83.3802 166.047 81.1406C165.266 78.3281 164.224 75.8281 162.922 73.6406C161.62 71.401 160.083 69.5781 158.312 68.1719C156.906 67.1302 155.318 66.3229 153.547 65.75C151.828 65.1771 149.901 64.8906 147.766 64.8906C145.734 64.8906 143.885 65.151 142.219 65.6719C140.604 66.1927 139.146 66.9479 137.844 67.9375C136.073 69.3958 134.562 71.2188 133.312 73.4062C132.115 75.5938 131.177 78.1458 130.5 81.0625C129.979 83.3021 129.589 85.75 129.328 88.4062C129.12 91.0625 129.016 93.849 129.016 96.7656V113.484C129.016 116.245 129.12 118.901 129.328 121.453C129.536 124.005 129.901 126.375 130.422 128.562C130.995 131.323 131.828 133.849 132.922 136.141C134.068 138.38 135.396 140.203 136.906 141.609C138.312 142.859 139.901 143.823 141.672 144.5C143.495 145.177 145.552 145.516 147.844 145.516C150.031 145.516 152.036 145.203 153.859 144.578C155.682 143.953 157.297 143.042 158.703 141.844C160.474 140.385 161.958 138.562 163.156 136.375C164.406 134.135 165.396 131.609 166.125 128.797C166.698 126.609 167.115 124.214 167.375 121.609C167.688 119.005 167.844 116.297 167.844 113.484V96.7656Z" fill="black"/>
</g>
<defs>
<clipPath id="clip0_2071_58">
<rect width="200" height="200" fill="white"/>
</clipPath>
</defs>
</svg>
